<?xml version="1.0" encoding="utf-8" ?>
<svg xmlns="http://www.w3.org/2000/svg" xmlns:xlink="http://www.w3.org/1999/xlink" width="1024" height="1024">
	<path fill="#FFFFFF" d="M0 0L1024 0L1024 1024L0 1024L0 0ZM515.535 63.6618C510.575 64.5256 506.203 65.8336 503.237 70.2805C501.238 73.3008 500.528 76.9941 501.264 80.5404C502.014 84.2547 504.329 87.2724 507.56 89.1982C510.791 91.1236 514.082 91.5824 517.776 91.5411C522.253 90.7266 526.092 89.5712 528.851 85.6296C531.036 82.5083 531.755 78.513 530.98 74.7991C530.206 71.0031 527.866 67.7098 524.536 65.7303C521.898 64.1839 518.579 63.442 515.535 63.6618ZM414.204 82.1505C412.963 82.9732 412.294 83.4073 411.756 84.8777C412.017 86.1148 412.202 86.6191 413.328 87.3C418.344 90.333 428.326 90.1235 433.829 88.7088C435.134 87.6909 435.761 87.3697 436.415 85.8198C436.12 84.8055 436.129 84.4959 435.136 83.9616C430.969 81.72 419.147 81.8341 414.204 82.1505ZM583.935 92.4774C583.876 94.1797 583.736 94.5797 584.651 96.0755C586.801 97.4898 589.188 97.8148 591.736 97.3686C592.645 97.2095 593.544 96.8927 594.414 96.5916C594.916 95.3552 595.08 95.0745 594.89 93.7736C593.322 92.2145 591.039 92.4792 588.986 92.4846C587.303 92.4891 585.616 92.5633 583.935 92.4774ZM693.832 121.999C686.172 123.058 680.825 130.132 681.897 137.791C682.969 145.449 690.052 150.784 697.708 149.7C705.347 148.619 710.668 141.555 709.599 133.914C708.53 126.273 701.475 120.942 693.832 121.999ZM282.793 140.935C278.484 142.804 275.206 144.817 273.29 149.373C271.605 153.381 271.956 157.985 273.737 161.895C275.424 165.688 278.59 168.626 282.5 170.023C284.674 170.789 287.24 170.457 289.506 170.343C293.102 169.476 295.77 167.476 297.699 164.28C299.974 160.508 300.43 155.441 299.314 151.226C298.325 147.492 295.97 144.434 292.549 142.616C289.601 141.049 286.077 140.847 282.793 140.935ZM459.124 173.346C458.923 173.421 458.723 173.502 458.519 173.571C454.091 175.059 445.013 170.742 442.069 175.791C442.157 177.068 442.372 177.933 443.356 178.842C445.904 181.194 458.955 181.232 462.88 181.506C466.679 181.396 474.746 181.744 477.53 178.731C478.445 177.74 478.361 177.437 478.273 176.186C476.841 174.373 475.042 173.899 472.816 173.614C469.194 173.15 463.24 174.678 460.27 173.043L459.124 173.346ZM593.227 178.984C593.43 180.46 593.458 181.073 594.704 181.988C596.79 183.518 600.273 183.796 602.731 183.229C603.583 183.033 603.486 183.05 604.201 182.816L604.717 180.977C603.964 179.82 603.476 179.48 602.113 179.136C599.588 178.497 595.85 178.817 593.227 178.984ZM678.14 198.119C676.333 198.668 675.049 199.134 673.556 200.307L673.103 201.286C674.315 203.554 676.365 204.157 678.744 204.873C683.88 206.453 689.324 206.762 694.606 205.772C696.205 205.376 697.296 205.212 698.385 203.858C698.784 202.475 698.906 202.38 698.371 201.065C695.236 198.642 682.193 197.769 678.14 198.119ZM209.947 202.581C209.06 203.757 208.619 204.247 208.585 205.782C209.511 207.149 210.334 207.604 211.968 207.918C214.144 208.336 215.805 208.283 217.951 207.753C219.049 207.035 219.821 206.665 220.369 205.422C220.156 204.446 220.168 204.203 219.234 203.669C216.769 202.259 212.725 202.464 209.947 202.581ZM346.779 205.57C333.995 208.484 321.793 213.532 310.687 220.503C298.683 228.132 286.83 239.221 272.867 242.895C264.919 244.986 260.906 241.336 257.516 241.956C257.499 243.139 257.885 243.855 258.787 244.635C259.792 245.505 261.363 246.179 262.579 246.694C271.539 249.515 282.22 246.195 290.256 242.055C306.903 233.479 320.826 221.184 338.996 215.544C341.887 214.647 350.567 213.231 351.66 210.568C352.209 209.231 351.996 208.721 351.612 207.406C350.594 206.372 349.807 205.491 348.234 205.487C347.748 205.485 347.264 205.534 346.779 205.57ZM852.338 218.708C846.662 219.211 841.641 220.083 837.706 224.671C834.96 227.875 833.697 232.091 834.232 236.277C834.826 241.124 837.611 245.729 841.528 248.619C844.956 251.148 848.523 251.998 852.669 252.331C858.206 251.603 862.723 250.069 866.294 245.456C869.177 241.733 870.649 236.831 869.991 232.141C869.385 227.822 867.089 223.824 863.463 221.355C860.623 219.421 855.743 218.2 852.338 218.708ZM506.204 225.636C506.022 225.722 505.843 225.814 505.658 225.895C501.112 227.891 494.243 226.164 489.202 226.591C477.013 227.711 464.906 229.589 452.952 232.215C398.424 245.124 349.061 274.186 311.317 315.601C297.196 330.824 284.323 347.546 275.277 366.334C268.651 370.146 262.013 374.3 254.99 377.329C235.726 385.636 214.792 384.687 194.918 379.333C182.932 376.103 171.786 370.917 160.31 366.299C126.887 352.85 105.634 357.732 75.0667 375.244C62.9699 382.174 41.5236 394.697 37.8924 408.9C36.0564 416.081 37.1307 425.438 41.0353 431.684C44.3675 437.015 49.3075 441.211 54.5679 444.549C41.8222 454.427 22.9674 467.257 20.4481 484.492C19.4436 491.364 21.3511 497.746 25.5331 503.226C31.4243 510.946 39.2927 514.838 47.8662 518.839C35.7026 530.66 20.2594 542.36 20.1269 560.897C20.0718 568.598 23.3792 574.558 28.6547 579.883C33.0534 584.323 38.3212 587.33 43.7404 590.349C34.0512 604.911 28.8421 620.672 32.4347 638.257C35.2763 652.165 43.5076 665.753 55.4918 673.587C67.1367 681.2 80.5081 683.939 94.171 681.024C105.456 678.676 115.292 671.821 121.403 662.048C126.89 653.464 128.396 643.045 126.059 633.137C124.191 625.217 119.255 618.796 112.31 614.633C105.918 610.8 97.7506 608.671 90.404 610.501C84.247 612.035 78.4586 615.827 75.2099 621.358C72.784 625.488 72.0439 630.334 73.3911 634.954C74.6125 639.143 77.4274 643.617 81.3935 645.684C82.8632 646.45 84.8954 647.093 86.5246 646.496C87.4226 646.167 88.0761 645.736 88.6041 644.944C87.4395 641.784 82.9882 643.393 80.4855 632.709C81.6136 628.161 83.3251 624.216 87.484 621.634C91.7463 618.987 96.0195 618.24 100.873 619.603C106.479 621.177 111.829 624.947 114.631 630.12C117.843 636.046 118.06 644.111 116.094 650.489C113.361 659.354 106.053 666.763 97.856 670.845C89.4055 675.054 79.5069 675.126 70.6796 672.045C60.2038 668.388 50.4458 660.428 45.7075 650.329C40.1993 638.589 39.4397 623.795 43.8743 611.611C48.8015 598.073 58.3288 586.924 71.5268 580.929C85.2731 574.685 100.456 575.751 114.338 581.025C128.694 586.479 140.418 596.318 152.581 605.35C167.883 616.713 184.993 623.569 203.992 625.474C216.09 626.686 228.529 625.464 239.732 620.489C245.647 617.862 249.501 613.761 254.814 610.457C256.457 619.559 264.256 636.094 268.68 644.507C290.532 686.067 319.589 721.616 358.17 748.757C397.197 776.339 442.845 793.069 490.452 797.236C495.731 797.664 501.159 797.48 506.456 797.499C527.374 797.573 547.877 796.128 568.465 792.302C579.698 790.215 590.799 786.4 601.518 782.53C632.523 771.337 653.893 759.559 680.194 739.839C695.926 727.877 710.823 712.478 723.168 697.055C728.363 690.565 732.974 683.496 738.322 677.158C747.789 674.874 755.653 671.122 763.774 665.748C782.766 653.18 810.634 621.677 833.895 621.957C840.121 622.032 846.263 624.91 851.496 628.083C862.036 634.473 870.262 643.841 879.286 652.075C897.108 668.339 920.55 679.414 945.116 673.577C959.097 670.255 970.771 662.904 978.306 650.524C984.555 640.257 986.699 628.377 983.709 616.64C981.526 608.073 975.88 598.707 967.972 594.319C965.914 593.177 963.705 592.547 961.444 591.943L961.065 591.23L963.246 590.108L964.16 590.736C965.135 590.346 965.359 590.026 965.955 589.241C967.679 586.968 971.654 585.691 974.058 584.004C986.459 575.301 991.592 563.323 989.968 548.362C988.917 538.686 986.06 528.171 978.108 521.882C974.697 519.184 970.744 517.37 966.693 515.85C977.675 510.337 987.047 505.348 991.249 492.97C994.27 484.073 994.361 470.863 990.069 462.365C986.859 456.008 981.213 452.256 974.566 450.213C970.656 449.012 966.588 448.456 962.557 447.822C975.098 438.031 986.39 427.408 988.548 410.774C990.088 398.904 987.187 387.254 979.728 377.835C973.844 370.405 965.386 364.154 955.796 363.071C944.515 361.798 932.344 364.021 923.352 371.268C917.633 375.877 913.253 382.6 912.395 389.993C911.486 397.836 913.987 406.817 918.929 412.988C922.604 417.577 927.765 420.545 933.663 421.006C939.391 421.454 945.58 419.796 949.858 415.862C954.718 411.393 957.083 405.379 958.056 398.998C956.784 395.875 955.479 392.625 952.171 391.128C951.198 390.688 949.924 390.56 948.902 390.922C948.582 391.035 948.3 391.235 947.999 391.391C949.146 397.85 950.082 401.612 945.951 407.407C943.821 410.396 940.601 413.297 936.821 413.776C933.883 414.148 930.834 412.712 928.665 410.821C924.221 406.945 921.329 399.926 921.041 394.105C920.772 388.676 922.735 383.705 926.417 379.745C931.779 373.979 940.453 370.723 948.291 370.453C955.389 370.208 961.451 373.294 966.465 378.09C973.608 384.923 977.735 393.701 977.809 403.622C977.895 415.303 972.183 425.009 964.128 433.115C951.904 445.415 933.973 452.661 916.645 452.514C885.483 452.25 868.386 424.645 836.753 420.176C826.311 418.7 816.292 420.14 806.528 424.061C795.762 428.385 787.559 435.323 777.783 441.094C772.552 422.088 764.902 394.49 755.126 377.679C777.092 385.012 797.561 392.016 819.846 381.044C832.312 374.906 847.465 360.288 862.401 364.959C866.541 366.255 870.185 369.007 872.075 372.974C873.793 376.582 873.617 380.579 872.192 384.253C870.589 388.386 867.483 391.509 863.409 393.227C861.461 394.048 858.407 395.014 856.335 394.177C855.577 393.871 855.591 393.468 855.265 392.781C855.529 389.06 859.091 384.58 857.502 381.09C856.308 379.984 855.018 379.694 853.416 379.735C851.139 379.792 849.139 380.755 847.663 382.486C845.497 385.025 844.759 388.737 845.169 391.989C845.57 395.167 847.133 397.964 849.666 399.939C853.097 402.615 857.783 402.893 861.928 402.185C868.646 401.037 874.485 396.869 878.252 391.26C881.407 386.562 883.813 380.542 882.736 374.83C881.586 368.737 876.894 363.698 871.799 360.458C863.978 355.485 854.343 354.643 845.449 356.748C835.555 359.089 827.645 364.476 819.18 369.812C800.071 381.857 785.819 380.035 765.405 372.544C760.242 370.649 754.783 368.941 749.799 366.654C719.829 308.262 658.013 258.983 595.976 239.132C585.8 235.876 552.478 226.396 543.628 227.754L543.812 228.842C542.631 228.485 542.078 227.96 541.197 227.116C536.585 226.26 529.555 225.142 525.071 226.408C520.972 227.565 511.239 225.512 506.204 225.636ZM129.063 286.661C123.668 287.49 118.63 288.544 115.215 293.26C112.975 296.381 112.139 300.295 112.908 304.059C113.749 308.272 116.468 311.941 120.051 314.251C123.195 316.278 126.299 316.661 129.912 317.069C135.068 316.022 139.214 314.525 142.32 309.948C144.775 306.332 145.873 301.622 145.037 297.309C144.376 293.903 142.483 290.875 139.553 288.976C136.744 287.157 132.376 286.281 129.063 286.661ZM238.431 299.149C237.433 299.971 237.003 300.457 236.524 301.663C237.13 302.917 237.494 303.323 238.911 303.763C240.698 304.319 242.685 304.068 244.523 303.946C245.399 302.93 246.046 302.272 246.234 300.884C245.703 300.014 245.568 299.768 244.512 299.483C242.685 298.99 240.332 299.18 238.431 299.149ZM891.743 301.18C888.226 301.697 884.672 302.295 881.127 302.56C875.925 302.948 865.804 301.413 861.894 305.335L862.081 306.22C865.648 308.535 869.762 308.75 873.879 309.319C880.13 310.229 895.588 309.759 900.616 306.259C901.329 305.762 901.75 305.262 902.148 304.483C901.908 303.321 901.546 302.913 900.49 302.317C897.598 300.685 894.913 300.966 891.743 301.18ZM783.605 307.907C783.237 309.164 782.78 309.958 783.479 311.207C784.56 313.141 787.157 313.954 789.196 314.268C790.511 314.471 791.851 314.32 793.166 314.184C793.631 312.686 793.852 312.424 793.342 310.886C790.833 308.742 786.762 308.509 783.605 307.907ZM935.216 705.253C935.05 705.292 934.886 705.339 934.719 705.37C933.877 705.526 933.113 705.462 932.266 705.411C931.373 706.118 931.16 706.239 930.771 707.292C931.429 708.722 932.156 709.337 933.668 709.844C934.848 710.239 935.891 710.506 937.139 710.31C938.711 710.158 940.654 710.166 941.858 708.984C942.252 708.596 942.425 708.243 942.692 707.785C942.508 706.544 942.358 706.204 941.241 705.433C939.828 704.458 936.86 705.089 935.216 705.253ZM182.023 709.197C170.218 710.148 158.735 712.038 147.55 716.074C136.243 720.155 125.726 726.662 113.47 727.672C106.247 728.268 99.4379 725.555 92.3516 725.135L91.8233 726.241C92.7047 728.422 95.4556 729.849 97.5497 730.762C108.74 735.645 124.247 732.407 135.125 728.217C150.13 722.079 165.603 717.321 181.925 716.589C191.041 716.18 199.941 717.174 208.914 718.656C213.576 719.426 219.054 720.989 223.764 720.824C225.671 720.757 226.87 720.357 228.292 719.104C228.83 717.731 228.981 716.75 228.387 715.347C227.915 714.23 227.156 713.315 226.026 712.804C223.907 711.845 220.459 711.819 218.082 711.485C205.799 709.76 194.481 708.597 182.023 709.197ZM854.904 714.547C854.733 714.588 854.561 714.627 854.39 714.672C845.815 716.922 838.944 722.454 829.758 723.159C812.551 724.479 794.599 711.265 777.625 719.573C775.654 720.538 772.864 722.127 771.674 724.013C771.275 724.645 771.448 725.053 771.497 725.753C772.22 726.465 772.606 727.021 773.733 726.938C774.072 726.913 774.574 726.68 774.892 726.547C798.647 713.956 821.768 737.447 846.614 726.566C851.194 724.56 855.563 721.374 858.129 717.015C858.084 716.318 858.253 716.058 857.657 715.58C856.81 714.9 855.938 714.791 854.904 714.547ZM713.428 772.384C712.68 773.759 712.519 773.924 712.675 775.459C714.016 777.148 715.59 777.389 717.624 777.618C719.458 777.824 720.855 777.722 722.655 777.344C723.453 776.014 723.828 775.689 723.745 774.104C722.469 772.86 721.463 772.607 719.678 772.619C717.538 772.633 715.561 772.624 713.428 772.384ZM838.036 774.465C828.28 775.878 821.472 784.87 822.759 794.643C824.047 804.417 832.951 811.339 842.74 810.178C849.185 809.413 854.72 805.24 857.229 799.254C859.738 793.268 858.832 786.396 854.859 781.264C850.886 776.132 844.459 773.535 838.036 774.465ZM168.154 788.588C162.365 789.816 157.147 791.777 153.791 797.01C151.251 800.971 150.45 806.232 151.623 810.782C152.705 814.983 155.489 818.214 159.286 820.235C163.04 822.233 167.148 822.685 171.331 822.623C177.276 821.004 181.78 818.196 184.822 812.61C186.928 808.741 187.866 804.02 186.624 799.721C185.512 795.877 182.8 792.747 179.301 790.858C175.706 788.918 172.152 788.626 168.154 788.588ZM308.046 802.032C307.411 803.365 307.2 803.419 307.615 804.81C309.928 806.941 313.218 806.68 316.168 806.922C317.124 805.509 317.645 805.066 317.689 803.329C315.38 801.26 311.044 802.203 308.046 802.032ZM670.31 828.536C670.174 828.58 670.039 828.626 669.902 828.668C661.66 831.248 641.022 832.435 635.103 837.517L635.027 838.388C637.04 839.697 638.719 839.601 641.047 839.614C651.225 840.578 665.465 839.471 673.762 832.689C674.362 832.199 674.709 831.672 675.053 830.989C674.902 830.349 674.979 829.979 674.385 829.58C673.282 828.838 671.619 828.67 670.31 828.536ZM408.893 846.577C407.253 846.926 405.727 847.063 404.497 848.304C404.429 849.503 404.352 850.05 405.326 850.968C408.761 854.204 422.591 854.36 427.309 853.488C429.029 853.17 430.415 852.781 432.189 852.834C433.348 851.733 433.594 851.558 433.993 850.031C433.428 848.75 433.183 848.084 431.846 847.5C425.954 844.924 417.262 847.875 410.827 846.625C410.148 846.493 409.577 846.496 408.893 846.577ZM501.96 861.167C500.002 861.273 498.037 861.176 496.304 862.194L495.591 863.211C495.958 864.27 496.38 865.156 497.485 865.652C498.117 865.936 498.774 866.028 499.439 866.182C500.341 866.392 501.239 866.631 502.139 866.851C503.797 866.663 504.488 866.496 505.831 865.507C506.552 864.194 506.619 864.089 506.452 862.608C505.481 861.614 504.683 861.197 503.241 861.079C502.655 861.031 502.481 861.084 501.96 861.167ZM786.834 862.166C786.676 862.21 786.519 862.256 786.361 862.298C783.866 862.968 780.743 862.099 778.907 864.099C779.17 865.198 779.56 865.848 780.539 866.492C781.799 867.321 783.535 867.531 784.991 867.721C786.945 867.575 789.657 867.693 791.045 866.122C791.829 865.234 791.88 864.774 792.055 863.654C791.423 862.646 791.235 862.237 789.971 861.955C789.09 861.758 787.691 861.901 786.834 862.166ZM300.217 864.544C294.808 866.008 289.624 867.222 283.991 867.183C269.987 867.087 255.805 861.442 243.244 871.057L242.962 871.962C244.582 872.809 245.738 872.666 247.432 872.13C247.831 872.003 248.229 871.869 248.624 871.729C259.565 867.91 271.358 873.565 282.239 874.765C287.301 875.323 302.204 875.192 304.385 869.666C304.813 868.581 304.752 867.215 304.112 866.229C303.383 865.104 302.167 864.658 300.889 864.538C300.666 864.517 300.441 864.542 300.217 864.544ZM681.342 887.713C671.425 889.333 664.651 898.623 666.141 908.561C667.631 918.499 676.831 925.394 686.788 924.035C693.346 923.139 698.915 918.784 701.365 912.636C703.814 906.487 702.766 899.496 698.621 894.336C694.476 889.176 687.875 886.646 681.342 887.713ZM565.43 922.039C564.182 922.491 563.159 922.744 562.353 923.876C562.356 924.854 562.129 924.767 562.775 925.32C564.908 927.144 569.172 927.674 571.891 927.512C572.914 926.506 573.683 925.842 574.027 924.387C573.574 923.307 573.542 923.138 572.392 922.674C570.456 921.894 567.522 922.118 565.43 922.039ZM508.786 930.717C503.983 931.419 499.812 932.854 496.864 936.963C494.605 940.111 493.969 944.147 494.7 947.909C495.43 951.842 497.752 955.3 501.117 957.464C504.412 959.539 508.039 960.056 511.871 959.889C516.654 959.006 520.978 957.549 523.777 953.23C525.726 950.222 526.187 946.591 525.395 943.128C524.43 938.904 521.646 935.293 517.975 933.044C515.035 931.244 512.283 930.702 508.896 930.729C508.859 930.729 508.823 930.721 508.786 930.717ZM411.124 936.57C405.259 939.304 391.685 934.468 386.693 939.301C386.918 940.439 387.017 940.499 387.974 941.108C389.61 942.151 391.954 942.89 393.827 943.412C399.564 943.774 412.469 945.401 416.677 940.773C417.054 940.357 417.177 939.959 417.376 939.467C417.092 938.251 416.979 937.868 415.795 937.186C414.635 936.517 412.391 936.308 411.124 936.57Z"/>
	<path fill="#A78BFA" d="M517.776 91.5411C514.082 91.5824 510.791 91.1236 507.56 89.1982C504.329 87.2724 502.014 84.2547 501.264 80.5404C500.528 76.9941 501.238 73.3008 503.237 70.2805C506.203 65.8336 510.575 64.5256 515.535 63.6618C518.579 63.442 521.898 64.1839 524.536 65.7303C527.866 67.7098 530.206 71.0031 530.98 74.7991C531.755 78.513 531.036 82.5083 528.851 85.6296C526.092 89.5712 522.253 90.7266 517.776 91.5411ZM512.551 69.5398C510.163 71.0118 508.768 72.2914 508.016 75.0703C507.364 77.4789 507.558 80.265 508.978 82.3741C510.093 84.0302 511.974 85.246 513.984 85.4016C515.095 85.4875 516.142 85.2097 517.214 84.9662C519.382 84.0751 521.178 82.944 522.166 80.7181C523.043 78.7435 522.983 76.5291 522.114 74.5653C521.156 72.3991 519.217 70.5333 516.959 69.773C515.563 69.303 513.999 69.4646 512.551 69.5398Z"/>
	<path fill="#FFFFFF" d="M517.214 84.9662C516.142 85.2097 515.095 85.4875 513.984 85.4016C511.974 85.246 510.093 84.0302 508.978 82.3741C507.558 80.265 507.364 77.4789 508.016 75.0703C508.768 72.2914 510.163 71.0118 512.551 69.5398C513.999 69.4646 515.563 69.303 516.959 69.773C519.217 70.5333 521.156 72.3991 522.114 74.5653C522.983 76.5291 523.043 78.7435 522.166 80.7181C521.178 82.944 519.382 84.0751 517.214 84.9662Z"/>
	<path fill="#A78BFA" d="M433.829 88.7088C428.326 90.1235 418.344 90.333 413.328 87.3C412.202 86.6191 412.017 86.1148 411.756 84.8777C412.294 83.4073 412.963 82.9732 414.204 82.1505C419.147 81.8341 430.969 81.72 435.136 83.9616C436.129 84.4959 436.12 84.8055 436.415 85.8198C435.761 87.3697 435.134 87.6909 433.829 88.7088Z"/>
	<path fill="#A78BFA" d="M594.414 96.5916C593.544 96.8927 592.645 97.2095 591.736 97.3686C589.188 97.8148 586.801 97.4898 584.651 96.0755C583.736 94.5797 583.876 94.1797 583.935 92.4774C585.616 92.5633 587.303 92.4891 588.986 92.4846C591.039 92.4792 593.322 92.2145 594.89 93.7736C595.08 95.0745 594.916 95.3552 594.414 96.5916Z"/>
	<path fill="#A78BFA" d="M697.708 149.7C690.052 150.784 682.969 145.449 681.897 137.791C680.825 130.132 686.172 123.058 693.832 121.999C701.475 120.942 708.53 126.273 709.599 133.914C710.668 141.555 705.347 148.619 697.708 149.7ZM691.826 127.537C689.418 129.58 688.097 131.435 687.92 134.679C687.778 137.3 688.496 139.914 690.386 141.804C691.601 143.019 693.037 143.816 694.789 143.761C695.657 143.733 696.52 143.529 697.36 143.328C699.736 141.678 701.099 139.875 701.693 136.999C702.167 134.798 701.712 132.5 700.436 130.646C699.275 128.996 697.452 127.761 695.438 127.472C694.236 127.3 693.024 127.412 691.826 127.537Z"/>
	<path fill="#FFFFFF" d="M697.36 143.328C696.52 143.529 695.657 143.733 694.789 143.761C693.037 143.816 691.601 143.019 690.386 141.804C688.496 139.914 687.778 137.3 687.92 134.679C688.097 131.435 689.418 129.58 691.826 127.537C693.024 127.412 694.236 127.3 695.438 127.472C697.452 127.761 699.275 128.996 700.436 130.646C701.712 132.5 702.167 134.798 701.693 136.999C701.099 139.875 699.736 141.678 697.36 143.328Z"/>
	<path fill="#A78BFA" d="M289.506 170.343C287.24 170.457 284.674 170.789 282.5 170.023C278.59 168.626 275.424 165.688 273.737 161.895C271.956 157.985 271.605 153.381 273.29 149.373C275.206 144.817 278.484 142.804 282.793 140.935C286.077 140.847 289.601 141.049 292.549 142.616C295.97 144.434 298.325 147.492 299.314 151.226C300.43 155.441 299.974 160.508 297.699 164.28C295.77 167.476 293.102 169.476 289.506 170.343ZM282.884 145.989C280.074 148.406 278.387 150.448 278.092 154.27C277.901 156.751 278.494 159.247 280.129 161.171C281.56 162.854 283.259 163.83 285.487 163.966C286.233 164.012 287.031 163.936 287.772 163.894C290.056 162.6 291.21 160.951 291.98 158.436C292.854 155.592 292.53 152.514 291.082 149.914C290.098 148.173 288.345 146.44 286.337 145.983C285.246 145.734 283.992 145.9 282.884 145.989Z"/>
	<path fill="#FFFFFF" d="M287.772 163.894C287.031 163.936 286.233 164.012 285.487 163.966C283.259 163.83 281.56 162.854 280.129 161.171C278.494 159.247 277.901 156.751 278.092 154.27C278.387 150.448 280.074 148.406 282.884 145.989C283.992 145.9 285.246 145.734 286.337 145.983C288.345 146.44 290.098 148.173 291.082 149.914C292.53 152.514 292.854 155.592 291.98 158.436C291.21 160.951 290.056 162.6 287.772 163.894Z"/>
	<path fill="#A78BFA" d="M462.88 181.506C458.955 181.232 445.904 181.194 443.356 178.842C442.372 177.933 442.157 177.068 442.069 175.791C445.013 170.742 454.091 175.059 458.519 173.571C458.723 173.502 458.923 173.421 459.124 173.346L460.27 173.043C463.24 174.678 469.194 173.15 472.816 173.614C475.042 173.899 476.841 174.373 478.273 176.186C478.361 177.437 478.445 177.74 477.53 178.731C474.746 181.744 466.679 181.396 462.88 181.506Z"/>
	<path fill="#A78BFA" d="M604.201 182.816C603.486 183.05 603.583 183.033 602.731 183.229C600.273 183.796 596.79 183.518 594.704 181.988C593.458 181.073 593.43 180.46 593.227 178.984C595.85 178.817 599.588 178.497 602.113 179.136C603.476 179.48 603.964 179.82 604.717 180.977L604.201 182.816Z"/>
	<path fill="#A78BFA" d="M694.606 205.772C689.324 206.762 683.88 206.453 678.744 204.873C676.365 204.157 674.315 203.554 673.103 201.286L673.556 200.307C675.049 199.134 676.333 198.668 678.14 198.119C682.193 197.769 695.236 198.642 698.371 201.065C698.906 202.38 698.784 202.475 698.385 203.858C697.296 205.212 696.205 205.376 694.606 205.772Z"/>
	<path fill="#A78BFA" d="M217.951 207.753C215.805 208.283 214.144 208.336 211.968 207.918C210.334 207.604 209.511 207.149 208.585 205.782C208.619 204.247 209.06 203.757 209.947 202.581C212.725 202.464 216.769 202.259 219.234 203.669C220.168 204.203 220.156 204.446 220.369 205.422C219.821 206.665 219.049 207.035 217.951 207.753Z"/>
	<path fill="#A78BFA" d="M262.579 246.694C261.363 246.179 259.792 245.505 258.787 244.635C257.885 243.855 257.499 243.139 257.516 241.956C260.906 241.336 264.919 244.986 272.867 242.895C286.83 239.221 298.683 228.132 310.687 220.503C321.793 213.532 333.995 208.484 346.779 205.57C347.264 205.534 347.748 205.485 348.234 205.487C349.807 205.491 350.594 206.372 351.612 207.406C351.996 208.721 352.209 209.231 351.66 210.568C350.567 213.231 341.887 214.647 338.996 215.544C320.826 221.184 306.903 233.479 290.256 242.055C282.22 246.195 271.539 249.515 262.579 246.694Z"/>
	<path fill="#A78BFA" d="M852.669 252.331C848.523 251.998 844.956 251.148 841.528 248.619C837.611 245.729 834.826 241.124 834.232 236.277C833.697 232.091 834.96 227.875 837.706 224.671C841.641 220.083 846.662 219.211 852.338 218.708C855.743 218.2 860.623 219.421 863.463 221.355C867.089 223.824 869.385 227.822 869.991 232.141C870.649 236.831 869.177 241.733 866.294 245.456C862.723 250.069 858.206 251.603 852.669 252.331ZM848.231 224.07C845.132 225.446 842.702 226.721 841.379 230.006C840.074 233.247 840.428 236.697 841.877 239.83C843.273 242.848 845.826 245.349 849.046 246.339C850.784 246.874 852.742 246.581 854.483 246.196C857.933 244.163 860.951 241.648 862.051 237.632C862.857 234.687 862.249 231.447 860.667 228.86C859.705 227.288 858.364 226.049 856.966 224.873C854.025 224.274 851.255 223.748 848.231 224.07Z"/>
	<path fill="#FFFFFF" d="M854.483 246.196C852.742 246.581 850.784 246.874 849.046 246.339C845.826 245.349 843.273 242.848 841.877 239.83C840.428 236.697 840.074 233.247 841.379 230.006C842.702 226.721 845.132 225.446 848.231 224.07C851.255 223.748 854.025 224.274 856.966 224.873C858.364 226.049 859.705 227.288 860.667 228.86C862.249 231.447 862.857 234.687 862.051 237.632C860.951 241.648 857.933 244.163 854.483 246.196Z"/>
	<path fill="#A78BFA" d="M275.277 366.334C284.323 347.546 297.196 330.824 311.317 315.601C349.061 274.186 398.424 245.124 452.952 232.215C464.906 229.589 477.013 227.711 489.202 226.591C494.243 226.164 501.112 227.891 505.658 225.895C505.843 225.814 506.022 225.722 506.204 225.636C511.239 225.512 520.972 227.565 525.071 226.408C529.555 225.142 536.585 226.26 541.197 227.116C542.078 227.96 542.631 228.485 543.812 228.842L543.628 227.754C552.478 226.396 585.8 235.876 595.976 239.132C658.013 258.983 719.829 308.262 749.799 366.654C754.783 368.941 760.242 370.649 765.405 372.544C785.819 380.035 800.071 381.857 819.18 369.812C827.645 364.476 835.555 359.089 845.449 356.748C854.343 354.643 863.978 355.485 871.799 360.458C876.894 363.698 881.586 368.737 882.736 374.83C883.813 380.542 881.407 386.562 878.252 391.26C874.485 396.869 868.646 401.037 861.928 402.185C857.783 402.893 853.097 402.615 849.666 399.939C847.133 397.964 845.57 395.167 845.169 391.989C844.759 388.737 845.497 385.025 847.663 382.486C849.139 380.755 851.139 379.792 853.416 379.735C855.018 379.694 856.308 379.984 857.502 381.09C859.091 384.58 855.529 389.06 855.265 392.781C855.591 393.468 855.577 393.871 856.335 394.177C858.407 395.014 861.461 394.048 863.409 393.227C867.483 391.509 870.589 388.386 872.192 384.253C873.617 380.579 873.793 376.582 872.075 372.974C870.185 369.007 866.541 366.255 862.401 364.959C847.465 360.288 832.312 374.906 819.846 381.044C797.561 392.016 777.092 385.012 755.126 377.679C764.902 394.49 772.552 422.088 777.783 441.094C787.559 435.323 795.762 428.385 806.528 424.061C816.292 420.14 826.311 418.7 836.753 420.176C868.386 424.645 885.483 452.25 916.645 452.514C933.973 452.661 951.904 445.415 964.128 433.115C972.183 425.009 977.895 415.303 977.809 403.622C977.735 393.701 973.608 384.923 966.465 378.09C961.451 373.294 955.389 370.208 948.291 370.453C940.453 370.723 931.779 373.979 926.417 379.745C922.735 383.705 920.772 388.676 921.041 394.105C921.329 399.926 924.221 406.945 928.665 410.821C930.834 412.712 933.883 414.148 936.821 413.776C940.601 413.297 943.821 410.396 945.951 407.407C950.082 401.612 949.146 397.85 947.999 391.391C948.3 391.235 948.582 391.035 948.902 390.922C949.924 390.56 951.198 390.688 952.171 391.128C955.479 392.625 956.784 395.875 958.056 398.998C957.083 405.379 954.718 411.393 949.858 415.862C945.58 419.796 939.391 421.454 933.663 421.006C927.765 420.545 922.604 417.577 918.929 412.988C913.987 406.817 911.486 397.836 912.395 389.993C913.253 382.6 917.633 375.877 923.352 371.268C932.344 364.021 944.515 361.798 955.796 363.071C965.386 364.154 973.844 370.405 979.728 377.835C987.187 387.254 990.088 398.904 988.548 410.774C986.39 427.408 975.098 438.031 962.557 447.822C966.588 448.456 970.656 449.012 974.566 450.213C981.213 452.256 986.859 456.008 990.069 462.365C994.361 470.863 994.27 484.073 991.249 492.97C987.047 505.348 977.675 510.337 966.693 515.85C970.744 517.37 974.697 519.184 978.108 521.882C986.06 528.171 988.917 538.686 989.968 548.362C991.592 563.323 986.459 575.301 974.058 584.004C971.654 585.691 967.679 586.968 965.955 589.241C965.359 590.026 965.135 590.346 964.16 590.736L963.246 590.108L961.065 591.23L961.444 591.943C963.705 592.547 965.914 593.177 967.972 594.319C975.88 598.707 981.526 608.073 983.709 616.64C986.699 628.377 984.555 640.257 978.306 650.524C970.771 662.904 959.097 670.255 945.116 673.577C920.55 679.414 897.108 668.339 879.286 652.075C870.262 643.841 862.036 634.473 851.496 628.083C846.263 624.91 840.121 622.032 833.895 621.957C810.634 621.677 782.766 653.18 763.774 665.748C755.653 671.122 747.789 674.874 738.322 677.158C732.974 683.496 728.363 690.565 723.168 697.055C710.823 712.478 695.926 727.877 680.194 739.839C653.893 759.559 632.523 771.337 601.518 782.53C590.799 786.4 579.698 790.215 568.465 792.302C547.877 796.128 527.374 797.573 506.456 797.499C501.159 797.48 495.731 797.664 490.452 797.236C442.845 793.069 397.197 776.339 358.17 748.757C319.589 721.616 290.532 686.067 268.68 644.507C264.256 636.094 256.457 619.559 254.814 610.457C249.501 613.761 245.647 617.862 239.732 620.489C228.529 625.464 216.09 626.686 203.992 625.474C184.993 623.569 167.883 616.713 152.581 605.35C140.418 596.318 128.694 586.479 114.338 581.025C100.456 575.751 85.2731 574.685 71.5268 580.929C58.3288 586.924 48.8015 598.073 43.8743 611.611C39.4397 623.795 40.1993 638.589 45.7075 650.329C50.4458 660.428 60.2038 668.388 70.6796 672.045C79.5069 675.126 89.4055 675.054 97.856 670.845C106.053 666.763 113.361 659.354 116.094 650.489C118.06 644.111 117.843 636.046 114.631 630.12C111.829 624.947 106.479 621.177 100.873 619.603C96.0195 618.24 91.7463 618.987 87.484 621.634C83.3251 624.216 81.6136 628.161 80.4855 632.709C82.9882 643.393 87.4395 641.784 88.6041 644.944C88.0761 645.736 87.4226 646.167 86.5246 646.496C84.8954 647.093 82.8632 646.45 81.3935 645.684C77.4274 643.617 74.6125 639.143 73.3911 634.954C72.0439 630.334 72.784 625.488 75.2099 621.358C78.4586 615.827 84.247 612.035 90.404 610.501C97.7506 608.671 105.918 610.8 112.31 614.633C119.255 618.796 124.191 625.217 126.059 633.137C128.396 643.045 126.89 653.464 121.403 662.048C115.292 671.821 105.456 678.676 94.171 681.024C80.5081 683.939 67.1367 681.2 55.4918 673.587C43.5076 665.753 35.2763 652.165 32.4347 638.257C28.8421 620.672 34.0512 604.911 43.7404 590.349C38.3212 587.33 33.0534 584.323 28.6547 579.883C23.3792 574.558 20.0718 568.598 20.1269 560.897C20.2594 542.36 35.7026 530.66 47.8662 518.839C39.2927 514.838 31.4243 510.946 25.5331 503.226C21.3511 497.746 19.4436 491.364 20.4481 484.492C22.9674 467.257 41.8222 454.427 54.5679 444.549C49.3075 441.211 44.3675 437.015 41.0353 431.684C37.1307 425.438 36.0564 416.081 37.8924 408.9C41.5236 394.697 62.9699 382.174 75.0667 375.244C105.634 357.732 126.887 352.85 160.31 366.299C171.786 370.917 182.932 376.103 194.918 379.333C214.792 384.687 235.726 385.636 254.99 377.329C262.013 374.3 268.651 370.146 275.277 366.334ZM463.228 312.825C461.13 313.931 460.324 316.528 461.428 318.628C462.531 320.727 465.126 321.537 467.227 320.437C469.333 319.335 470.145 316.732 469.04 314.628C467.934 312.524 465.33 311.716 463.228 312.825ZM624.318 350.647C622.139 351.59 621.148 354.13 622.113 356.3C623.077 358.469 625.627 359.435 627.787 358.449C629.917 357.477 630.866 354.97 629.915 352.831C628.964 350.691 626.467 349.717 624.318 350.647ZM730.182 355.827C724.431 358.722 719.085 362.301 713.423 365.353C706.192 369.252 698.518 372.646 690.977 375.905C678.083 381.477 664.86 386.006 651.538 390.413C642.508 393.4 633.448 396.655 624.279 399.18C600.24 405.799 576.064 409.259 551.238 411.057C538.079 412.01 525.063 412.823 511.904 411.323C502.127 410.208 491.68 407.539 482.334 404.443C467.352 399.481 453.576 392.136 439.518 385.105C414.29 372.489 377.393 356.303 349.189 357.65C338.089 358.181 327.61 360.95 316.987 363.988C305.891 367.161 293.405 370.612 283.074 375.687L282.516 375.967C276.079 387.093 271.119 399.924 266.883 412.058C247.428 467.785 243.494 532.095 258.789 589.378C265.848 615.815 276.943 639.722 290.741 663.217C293.366 667.686 296.662 674.668 300.875 677.684C301.829 677.727 302.35 677.656 303.228 677.279C307.906 674.555 312.348 671.491 316.996 668.729C325.862 663.565 334.873 658.652 344.016 653.996C384.096 633.588 441.284 613.699 486.282 613.91C501.784 613.983 529.886 618.727 545.182 622.715C565.519 628.02 585.473 634.702 604.903 642.717C616.622 647.663 627.915 653.593 639.598 658.62C667.069 670.733 697.065 676.012 727.022 674.007C736.387 658.669 745.55 642.856 752.502 626.25C776.431 568.791 781.602 505.243 767.276 444.672C760.624 417.236 751.346 391.651 737.879 366.774C736.341 363.933 733.739 357.868 731.036 356.144C730.698 355.928 730.534 355.913 730.182 355.827ZM119.187 367.175C100.053 369.519 62.7774 388.242 50.6906 403.556C46.937 408.311 44.9549 413.671 45.7863 419.746C47.0561 429.025 53.5041 433.693 58.7276 440.633L59.3408 440.268C63.9765 437.482 68.1635 434.036 72.6446 431.018C88.7547 420.167 105.776 411.922 125.486 416.64C147.322 421.866 163.195 439.974 183.865 447.785C201.46 453.189 217.214 450.718 233.283 442.093C238.966 439.042 245.01 435.383 249.681 430.889C254.439 413.481 260.95 397.14 268.113 380.62C240.709 394.712 215.766 395.099 186.56 385.637C166.167 379.031 141.067 363.381 119.187 367.175ZM110.347 423.211C103.21 423.785 97.0784 425.477 90.5635 428.489C75.9851 435.231 45.6338 458.738 35.2715 470.883C30.881 476.029 27.1163 482.442 27.6807 489.455C28.1839 495.708 32.4494 501.224 37.2137 505.034C41.8776 508.763 47.0637 512.028 51.8621 515.624C74.5402 500.648 98.4812 490.337 126.113 496.047C140.747 499.071 152.374 506.229 165.674 512.323C180.679 519.632 196.653 522.44 212.728 516.876C222.786 513.395 230.849 507.549 239.28 501.272C239.749 494.491 240.704 487.763 241.451 481.01C242.862 468.25 244.228 456.185 247.002 443.619C229.089 454.689 207.848 462.034 186.782 456.999C159.868 450.566 139.473 421.364 110.347 423.211ZM833.166 427.72C816.131 429.162 807.895 433.811 793.765 443.078C789.319 445.994 784.94 449.047 780.033 451.153C781.288 455.872 781.781 460.799 782.431 465.634C784.483 480.882 785.34 495.994 785.602 511.371C805.404 497.541 823.778 479.49 850.089 484.316C872.946 488.509 890.464 506.072 912.862 512.105C930.395 515.885 952.486 514.265 967.929 504.402C973.829 500.634 979.773 494.75 981.322 487.721C982.918 480.476 983.699 470.369 979.373 463.969C974.346 456.534 963.812 454.787 955.799 452.011C932.58 460.998 912.605 465.392 888.814 454.772C873.544 447.955 849.269 426.607 833.166 427.72ZM842.414 491.701C823.102 493.924 808.833 504.99 793.961 516.625C791.586 518.483 787.653 520.183 785.871 522.411C784.544 529.043 785.301 536.261 784.62 543.015C783.057 558.538 778.973 580.626 774.233 595.277L774.877 595.026C783.063 591.751 789.421 585.725 796.282 580.386C819.485 562.331 844.718 544.307 875.189 557.005C881.543 559.653 887.265 563.499 892.881 567.43C907.193 578.276 921.645 589.457 940.717 586.94C952.99 585.321 966.831 578.632 974.393 568.6C979.234 562.176 980.405 554.944 979.287 547.149C978.183 539.445 975.651 530.906 968.98 526.204C965.295 523.606 960.738 522.824 957.808 519.239C945.487 520.973 934.194 523.336 921.624 521.711C913.169 520.619 904.316 518.331 896.57 514.741C880.258 507.181 867.34 495.092 848.902 492.265C846.916 491.96 844.415 491.37 842.414 491.701ZM104.794 501.707C79.1532 503.784 53.6262 520.097 37.1133 539.281C31.9354 545.297 27.3474 553.679 28.0354 561.859C28.637 569.01 33.5366 574.428 38.8797 578.708C41.8241 581.067 45.0867 583.335 48.4076 585.129C64.1576 571.186 76.3401 566.339 97.7113 567.551C132.665 569.534 151.241 599.522 181.25 611.397C198.843 617.325 218.545 620.602 235.918 612.046C240.016 610.028 248.563 604.407 250.541 600.399C249.92 590.078 246.088 579.742 244.315 569.53C241.888 555.556 239.885 541.556 239.276 527.375C239.045 521.999 239.427 516.634 239.298 511.27C220.42 522.935 201.605 531.261 178.997 525.894C152.146 519.519 136.485 499.512 104.794 501.707ZM849.747 562.088C830.164 566.3 815.672 579.079 800.444 591.21C793.876 596.442 786.103 602.759 777.767 604.746C775.405 605.309 772.726 604.947 770.323 604.78C770.384 605.541 770.546 606.193 770.662 606.928C771.003 609.09 769.055 612.703 768.29 614.842C762.975 629.711 754.954 651.085 745.738 663.819C755.153 659.975 762.668 653.391 770.499 647.074C792.226 629.546 819.56 604.727 849.551 617.447C854.098 619.376 858.411 622.009 862.393 624.922C886.27 642.784 903.354 670.72 937.671 665.558C948.998 663.855 960.043 657.441 966.8 648.147C972.532 640.265 974.745 629.808 973.204 620.204C971.952 612.409 967.681 605.996 961.327 601.405C957.242 598.453 952.546 596.35 947.776 594.774C927.765 598.105 913.465 593.69 897.051 581.946C882.011 571.185 869.27 560.456 849.747 562.088ZM413.057 663.71C410.898 664.505 409.762 666.873 410.495 669.054C411.227 671.236 413.562 672.438 415.763 671.769C417.244 671.318 418.363 670.098 418.685 668.584C419.006 667.07 418.48 665.5 417.309 664.487C416.139 663.473 414.51 663.176 413.057 663.71ZM490.806 689.587C489.233 689.996 488.007 691.227 487.605 692.802C487.203 694.377 487.689 696.046 488.874 697.158C490.059 698.271 491.755 698.651 493.302 698.15C495.597 697.407 496.887 694.974 496.211 692.657C495.536 690.341 493.142 688.981 490.806 689.587ZM567.134 736.294C565.107 737.519 564.445 740.147 565.65 742.186C566.856 744.224 569.478 744.911 571.528 743.726C573.606 742.524 574.304 739.858 573.083 737.792C571.861 735.725 569.188 735.052 567.134 736.294Z"/>
	<path fill="#A78BFA" d="M129.912 317.069C126.299 316.661 123.195 316.278 120.051 314.251C116.468 311.941 113.749 308.272 112.908 304.059C112.139 300.295 112.975 296.381 115.215 293.26C118.63 288.544 123.668 287.49 129.063 286.661C132.376 286.281 136.744 287.157 139.553 288.976C142.483 290.875 144.376 293.903 145.037 297.309C145.873 301.622 144.775 306.332 142.32 309.948C139.214 314.525 135.068 316.022 129.912 317.069ZM128.678 291.557C125.409 292.331 122.272 293.005 120.342 296.059C119.483 297.418 119.077 298.958 118.662 300.494C119.638 304.13 120.563 308.087 124.016 310.179C125.767 311.24 127.553 311.177 129.519 311.119C132.642 310.19 134.694 309.22 136.233 306.222C137.429 303.892 137.79 300.852 138.303 298.291C136.643 295.578 134.651 292.293 131.226 291.672C130.337 291.511 129.572 291.502 128.678 291.557Z"/>
	<path fill="#FFFFFF" d="M118.662 300.494C119.077 298.958 119.483 297.418 120.342 296.059C122.272 293.005 125.409 292.331 128.678 291.557C129.572 291.502 130.337 291.511 131.226 291.672C134.651 292.293 136.643 295.578 138.303 298.291C137.79 300.852 137.429 303.892 136.233 306.222C134.694 309.22 132.642 310.19 129.519 311.119C127.553 311.177 125.767 311.24 124.016 310.179C120.563 308.087 119.638 304.13 118.662 300.494Z"/>
	<path fill="#A78BFA" d="M244.523 303.946C242.685 304.068 240.698 304.319 238.911 303.763C237.494 303.323 237.13 302.917 236.524 301.663C237.003 300.457 237.433 299.971 238.431 299.149C240.332 299.18 242.685 298.99 244.512 299.483C245.568 299.768 245.703 300.014 246.234 300.884C246.046 302.272 245.399 302.93 244.523 303.946Z"/>
	<path fill="#A78BFA" d="M873.879 309.319C869.762 308.75 865.648 308.535 862.081 306.22L861.894 305.335C865.804 301.413 875.925 302.948 881.127 302.56C884.672 302.295 888.226 301.697 891.743 301.18C894.913 300.966 897.598 300.685 900.49 302.317C901.546 302.913 901.908 303.321 902.148 304.483C901.75 305.262 901.329 305.762 900.616 306.259C895.588 309.759 880.13 310.229 873.879 309.319Z"/>
	<path fill="#A78BFA" d="M793.166 314.184C791.851 314.32 790.511 314.471 789.196 314.268C787.157 313.954 784.56 313.141 783.479 311.207C782.78 309.958 783.237 309.164 783.605 307.907C786.762 308.509 790.833 308.742 793.342 310.886C793.852 312.424 793.631 312.686 793.166 314.184Z"/>
	<path fill="#FFFFFF" d="M467.227 320.437C465.126 321.537 462.531 320.727 461.428 318.628C460.324 316.528 461.13 313.931 463.228 312.825C465.33 311.716 467.934 312.524 469.04 314.628C470.145 316.732 469.333 319.335 467.227 320.437Z"/>
	<path fill="#FFFFFF" d="M627.787 358.449C625.627 359.435 623.077 358.469 622.113 356.3C621.148 354.13 622.139 351.59 624.318 350.647C626.467 349.717 628.964 350.691 629.915 352.831C630.866 354.97 629.917 357.477 627.787 358.449Z"/>
	<path fill="#FFFFFF" d="M282.516 375.967L283.074 375.687C293.405 370.612 305.891 367.161 316.987 363.988C327.61 360.95 338.089 358.181 349.189 357.65C377.393 356.303 414.29 372.489 439.518 385.105C453.576 392.136 467.352 399.481 482.334 404.443C491.68 407.539 502.127 410.208 511.904 411.323C525.063 412.823 538.079 412.01 551.238 411.057C576.064 409.259 600.24 405.799 624.279 399.18C633.448 396.655 642.508 393.4 651.538 390.413C664.86 386.006 678.083 381.477 690.977 375.905C698.518 372.646 706.192 369.252 713.423 365.353C719.085 362.301 724.431 358.722 730.182 355.827C730.534 355.913 730.698 355.928 731.036 356.144C733.739 357.868 736.341 363.933 737.879 366.774C751.346 391.651 760.624 417.236 767.276 444.672C781.602 505.243 776.431 568.791 752.502 626.25C745.55 642.856 736.387 658.669 727.022 674.007C697.065 676.012 667.069 670.733 639.598 658.62C627.915 653.593 616.622 647.663 604.903 642.717C585.473 634.702 565.519 628.02 545.182 622.715C529.886 618.727 501.784 613.983 486.282 613.91C441.284 613.699 384.096 633.588 344.016 653.996C334.873 658.652 325.862 663.565 316.996 668.729C312.348 671.491 307.906 674.555 303.228 677.279C302.35 677.656 301.829 677.727 300.875 677.684C296.662 674.668 293.366 667.686 290.741 663.217C276.943 639.722 265.848 615.815 258.789 589.378C243.494 532.095 247.428 467.785 266.883 412.058C271.119 399.924 276.079 387.093 282.516 375.967ZM583.318 459.299C582.091 461.645 581.756 463.558 581.647 466.188C581.27 475.358 582.484 484.714 582.69 493.906C582.969 506.372 581.12 541.634 584.39 551.345C584.648 552.11 584.7 552.702 585.504 553.04C589.451 554.698 618.206 554.181 623.549 553.393C624.912 552.768 625.708 552.239 626.79 551.201L627.008 550.23C625.664 548.176 623.89 547.784 621.607 547.315C613.226 545.595 599.569 546.396 590.347 545.919C589.127 528.924 589.446 511.547 589.452 494.498C589.455 485.069 589.782 475.507 588.644 466.125C588.396 464.077 588.284 461.971 586.758 460.442C585.566 459.874 584.636 459.537 583.318 459.299ZM440.077 460.942C438.886 461.959 437.858 462.983 437.038 464.33C433.619 469.94 431.287 476.529 428.52 482.498C425.147 489.778 421.392 496.906 417.681 504.018C413.753 496.694 409.995 489.279 406.411 481.781C404.11 477 402.013 471.669 399.162 467.207C398.159 465.638 397.308 464.45 395.51 463.784C394.194 463.992 394.196 464.067 393.293 465.064C393.028 466.183 392.882 467.061 393.113 468.203C394.393 474.533 397.886 481.013 400.556 486.883C404.578 495.725 408.728 504.519 412.486 513.476C408.401 521.27 404.217 529.011 399.934 536.697C397.518 541.097 394.568 545.575 392.908 550.31C392.307 552.024 392.093 553.175 392.614 554.973C393.278 555.711 393.619 556.256 394.735 556.2C395.097 556.181 395.702 555.939 396.052 555.813C402.29 549.701 414.481 528.063 418.832 519.669C423.627 526.467 428.197 533.422 432.533 540.523C435.312 545.173 437.651 550.781 441.062 554.957C441.893 555.974 442.673 556.542 443.993 556.811C444.818 556.979 445.205 556.725 445.972 556.473C446.936 555.173 447.189 554.265 446.967 552.636C445.765 543.811 429.112 520.142 424.034 510.699C427.838 502.089 445.796 469.424 444.389 462.647C443.595 461.525 443.442 461.216 442.013 460.931C441.455 460.82 440.625 460.919 440.077 460.942ZM492.172 460.841C491.584 461.583 490.973 462.307 490.716 463.24C489.089 469.146 490.982 489.96 491.106 497.389C483.074 497.586 475.046 497.921 467.025 498.395C466.382 491.125 467.787 466.552 463.17 461.89C461.825 461.515 461.698 461.674 460.379 462.196C459.553 463.083 459.257 463.754 459.13 464.969C458.376 472.17 459.263 480.116 459.498 487.355L460.812 528.003C460.991 532.941 460.598 551.069 463.409 554.18C464.325 555.193 464.839 555.14 466.066 555.088C467.601 554.049 468.283 552.847 468.733 551.069C469.212 549.179 468.697 546.368 468.555 544.408C468.258 531.825 467.444 519.233 467.467 506.648C472.362 506.422 485.783 503.877 489.553 506.58C491.695 516.88 488.829 546.787 491.788 553.656C492.154 554.506 492.585 554.929 493.278 555.506C494.454 555.851 495.071 556.021 496.268 555.693C498.214 554.007 498.857 551.15 498.994 548.659C499.348 542.242 499.033 535.666 498.99 529.238C498.975 516.426 498.746 503.615 498.301 490.81C498.01 482.39 498.346 473.344 497.243 465.035C497.078 463.794 496.859 462.95 496.012 461.982C494.672 461.211 493.668 461.019 492.172 460.841ZM534.655 460.805C533.177 461.857 532.042 462.698 531.424 464.476C528.453 473.018 527.505 483.74 525.638 492.718C522.014 510.15 517.611 527.627 514.612 545.152C514.175 547.71 513.232 551.367 514.72 553.69C515.197 554.436 515.862 554.631 516.612 555.041C517.825 554.899 518.387 554.694 519.195 553.723C522.521 549.729 524.845 533.298 526.033 527.523C535.242 527.318 544.424 526.499 553.625 526.316C554.436 526.374 555.277 526.189 555.876 526.808C560.131 531.203 564.194 554.328 570.211 554.695C571.585 554.779 571.837 554.408 572.649 553.47C572.987 551.76 572.746 550.329 572.207 548.682C568.087 536.115 562.073 524.021 557.262 511.694L544.322 477.993C542.449 473.176 540.734 467.057 537.952 462.752C537.129 461.478 536.063 461.148 534.655 460.805ZM638.874 461.616C637.456 462.341 636.542 462.595 635.957 464.213C634.267 468.892 636.194 536.452 636.734 543.585C636.973 546.754 637.393 549.859 638.759 552.76C642.742 556.176 659.862 554.183 665.313 553.765C668.632 553.51 672.093 553.358 674.256 550.402C674.846 549.595 674.721 549.709 674.764 548.808C673.815 547.371 672.565 546.92 670.927 546.587C663.133 544.999 652.305 547.124 643.975 546.674L643.898 537.375C643.802 527.637 643.359 517.841 643.432 508.114C647.944 508.356 657.631 509.942 661.298 507.028C662.269 506.257 662.584 505.274 662.514 504.066C662.456 503.063 662.167 502.495 661.67 501.662C658.16 499.158 647.97 500.537 643.49 500.457C642.236 490.43 642.526 479.952 642.507 469.855C649.94 469.965 667.777 471.758 673.201 467.366C673.722 466.294 674.005 465.844 673.437 464.644C672.761 463.216 671.646 462.674 670.186 462.404C662.412 460.966 647.131 461.427 638.874 461.616ZM350.134 462.674C348.296 462.864 346.593 462.866 345.013 463.894C343.956 465.479 343.811 467.253 343.685 469.113C343.082 477.983 343.176 550.107 344.167 553.435C344.442 554.358 344.6 554.524 345.458 554.923C348.657 556.411 375.181 556.989 378.097 555.492C379.093 554.981 379.742 553.83 379.912 552.762C380.18 551.071 379.555 549.306 378.333 548.122C374.324 544.239 352.32 550.76 350.544 546.058L350.467 506.57C354.238 506.625 362.831 508.047 365.883 505.815C366.81 505.137 367.212 504.194 367.196 503.053C367.179 501.768 366.449 500.606 365.433 499.868C362.477 497.718 353.829 498.968 349.906 498.415C349.935 489.267 349.89 480.119 349.772 470.972C355.316 470.965 374.1 472.073 378.41 470.055C379.254 468.981 379.66 468.49 379.634 467.028C379.611 465.709 378.918 464.761 377.944 463.954C374.191 460.846 355.742 462.529 350.134 462.674Z"/>
	<path fill="#FFFFFF" d="M58.7276 440.633C53.5041 433.693 47.0561 429.025 45.7863 419.746C44.9549 413.671 46.937 408.311 50.6906 403.556C62.7774 388.242 100.053 369.519 119.187 367.175C141.067 363.381 166.167 379.031 186.56 385.637C215.766 395.099 240.709 394.712 268.113 380.62C260.95 397.14 254.439 413.481 249.681 430.889C245.01 435.383 238.966 439.042 233.283 442.093C217.214 450.718 201.46 453.189 183.865 447.785C163.195 439.974 147.322 421.866 125.486 416.64C105.776 411.922 88.7547 420.167 72.6446 431.018C68.1635 434.036 63.9765 437.482 59.3408 440.268L58.7276 440.633Z"/>
	<path fill="#FFFFFF" d="M51.8621 515.624C47.0637 512.028 41.8776 508.763 37.2137 505.034C32.4494 501.224 28.1839 495.708 27.6807 489.455C27.1163 482.442 30.881 476.029 35.2715 470.883C45.6338 458.738 75.9851 435.231 90.5635 428.489C97.0784 425.477 103.21 423.785 110.347 423.211C139.473 421.364 159.868 450.566 186.782 456.999C207.848 462.034 229.089 454.689 247.002 443.619C244.228 456.185 242.862 468.25 241.451 481.01C240.704 487.763 239.749 494.491 239.28 501.272C230.849 507.549 222.786 513.395 212.728 516.876C196.653 522.44 180.679 519.632 165.674 512.323C152.374 506.229 140.747 499.071 126.113 496.047C98.4812 490.337 74.5402 500.648 51.8621 515.624Z"/>
	<path fill="#FFFFFF" d="M780.033 451.153C784.94 449.047 789.319 445.994 793.765 443.078C807.895 433.811 816.131 429.162 833.166 427.72C849.269 426.607 873.544 447.955 888.814 454.772C912.605 465.392 932.58 460.998 955.799 452.011C963.812 454.787 974.346 456.534 979.373 463.969C983.699 470.369 982.918 480.476 981.322 487.721C979.773 494.75 973.829 500.634 967.929 504.402C952.486 514.265 930.395 515.885 912.862 512.105C890.464 506.072 872.946 488.509 850.089 484.316C823.778 479.49 805.404 497.541 785.602 511.371C785.34 495.994 784.483 480.882 782.431 465.634C781.781 460.799 781.288 455.872 780.033 451.153Z"/>
	<path fill="#A78BFA" d="M623.549 553.393C618.206 554.181 589.451 554.698 585.504 553.04C584.7 552.702 584.648 552.11 584.39 551.345C581.12 541.634 582.969 506.372 582.69 493.906C582.484 484.714 581.27 475.358 581.647 466.188C581.756 463.558 582.091 461.645 583.318 459.299C584.636 459.537 585.566 459.874 586.758 460.442C588.284 461.971 588.396 464.077 588.644 466.125C589.782 475.507 589.455 485.069 589.452 494.498C589.446 511.547 589.127 528.924 590.347 545.919C599.569 546.396 613.226 545.595 621.607 547.315C623.89 547.784 625.664 548.176 627.008 550.23L626.79 551.201C625.708 552.239 624.912 552.768 623.549 553.393Z"/>
	<path fill="#A78BFA" d="M417.681 504.018C421.392 496.906 425.147 489.778 428.52 482.498C431.287 476.529 433.619 469.94 437.038 464.33C437.858 462.983 438.886 461.959 440.077 460.942C440.625 460.919 441.455 460.82 442.013 460.931C443.442 461.216 443.595 461.525 444.389 462.647C445.796 469.424 427.838 502.089 424.034 510.699C429.112 520.142 445.765 543.811 446.967 552.636C447.189 554.265 446.936 555.173 445.972 556.473C445.205 556.725 444.818 556.979 443.993 556.811C442.673 556.542 441.893 555.974 441.062 554.957C437.651 550.781 435.312 545.173 432.533 540.523C428.197 533.422 423.627 526.467 418.832 519.669C414.481 528.063 402.29 549.701 396.052 555.813C395.702 555.939 395.097 556.181 394.735 556.2C393.619 556.256 393.278 555.711 392.614 554.973C392.093 553.175 392.307 552.024 392.908 550.31C394.568 545.575 397.518 541.097 399.934 536.697C404.217 529.011 408.401 521.27 412.486 513.476C408.728 504.519 404.578 495.725 400.556 486.883C397.886 481.013 394.393 474.533 393.113 468.203C392.882 467.061 393.028 466.183 393.293 465.064C394.196 464.067 394.194 463.992 395.51 463.784C397.308 464.45 398.159 465.638 399.162 467.207C402.013 471.669 404.11 477 406.411 481.781C409.995 489.279 413.753 496.694 417.681 504.018Z"/>
	<path fill="#A78BFA" d="M491.106 497.389C490.982 489.96 489.089 469.146 490.716 463.24C490.973 462.307 491.584 461.583 492.172 460.841C493.668 461.019 494.672 461.211 496.012 461.982C496.859 462.95 497.078 463.794 497.243 465.035C498.346 473.344 498.01 482.39 498.301 490.81C498.746 503.615 498.975 516.426 498.99 529.238C499.033 535.666 499.348 542.242 498.994 548.659C498.857 551.15 498.214 554.007 496.268 555.693C495.071 556.021 494.454 555.851 493.278 555.506C492.585 554.929 492.154 554.506 491.788 553.656C488.829 546.787 491.695 516.88 489.553 506.58C485.783 503.877 472.362 506.422 467.467 506.648C467.444 519.233 468.258 531.825 468.555 544.408C468.697 546.368 469.212 549.179 468.733 551.069C468.283 552.847 467.601 554.049 466.066 555.088C464.839 555.14 464.325 555.193 463.409 554.18C460.598 551.069 460.991 532.941 460.812 528.003L459.498 487.355C459.263 480.116 458.376 472.17 459.13 464.969C459.257 463.754 459.553 463.083 460.379 462.196C461.698 461.674 461.825 461.515 463.17 461.89C467.787 466.552 466.382 491.125 467.025 498.395C475.046 497.921 483.074 497.586 491.106 497.389Z"/>
	<path fill="#A78BFA" d="M526.033 527.523C524.845 533.298 522.521 549.729 519.195 553.723C518.387 554.694 517.825 554.899 516.612 555.041C515.862 554.631 515.197 554.436 514.72 553.69C513.232 551.367 514.175 547.71 514.612 545.152C517.611 527.627 522.014 510.15 525.638 492.718C527.505 483.74 528.453 473.018 531.424 464.476C532.042 462.698 533.177 461.857 534.655 460.805C536.063 461.148 537.129 461.478 537.952 462.752C540.734 467.057 542.449 473.176 544.322 477.993L557.262 511.694C562.073 524.021 568.087 536.115 572.207 548.682C572.746 550.329 572.987 551.76 572.649 553.47C571.837 554.408 571.585 554.779 570.211 554.695C564.194 554.328 560.131 531.203 555.876 526.808C555.277 526.189 554.436 526.374 553.625 526.316C544.424 526.499 535.242 527.318 526.033 527.523ZM535.885 477.709C533.274 491.863 530.547 505.996 527.704 520.105C533.515 520.013 539.324 519.787 545.125 519.428L552.94 518.872C550.069 511.797 539.419 481.166 535.885 477.709Z"/>
	<path fill="#A78BFA" d="M643.975 546.674C652.305 547.124 663.133 544.999 670.927 546.587C672.565 546.92 673.815 547.371 674.764 548.808C674.721 549.709 674.846 549.595 674.256 550.402C672.093 553.358 668.632 553.51 665.313 553.765C659.862 554.183 642.742 556.176 638.759 552.76C637.393 549.859 636.973 546.754 636.734 543.585C636.194 536.452 634.267 468.892 635.957 464.213C636.542 462.595 637.456 462.341 638.874 461.616C647.131 461.427 662.412 460.966 670.186 462.404C671.646 462.674 672.761 463.216 673.437 464.644C674.005 465.844 673.722 466.294 673.201 467.366C667.777 471.758 649.94 469.965 642.507 469.855C642.526 479.952 642.236 490.43 643.49 500.457C647.97 500.537 658.16 499.158 661.67 501.662C662.167 502.495 662.456 503.063 662.514 504.066C662.584 505.274 662.269 506.257 661.298 507.028C657.631 509.942 647.944 508.356 643.432 508.114C643.359 517.841 643.802 527.637 643.898 537.375L643.975 546.674Z"/>
	<path fill="#A78BFA" d="M350.544 546.058C352.32 550.76 374.324 544.239 378.333 548.122C379.555 549.306 380.18 551.071 379.912 552.762C379.742 553.83 379.093 554.981 378.097 555.492C375.181 556.989 348.657 556.411 345.458 554.923C344.6 554.524 344.442 554.358 344.167 553.435C343.176 550.107 343.082 477.983 343.685 469.113C343.811 467.253 343.956 465.479 345.013 463.894C346.593 462.866 348.296 462.864 350.134 462.674C355.742 462.529 374.191 460.846 377.944 463.954C378.918 464.761 379.611 465.709 379.634 467.028C379.66 468.49 379.254 468.981 378.41 470.055C374.1 472.073 355.316 470.965 349.772 470.972C349.89 480.119 349.935 489.267 349.906 498.415C353.829 498.968 362.477 497.718 365.433 499.868C366.449 500.606 367.179 501.768 367.196 503.053C367.212 504.194 366.81 505.137 365.883 505.815C362.831 508.047 354.238 506.625 350.467 506.57L350.544 546.058Z"/>
	<path fill="#FFFFFF" d="M527.704 520.105C530.547 505.996 533.274 491.863 535.885 477.709C539.419 481.166 550.069 511.797 552.94 518.872L545.125 519.428C539.324 519.787 533.515 520.013 527.704 520.105Z"/>
	<path fill="#FFFFFF" d="M774.233 595.277C778.973 580.626 783.057 558.538 784.62 543.015C785.301 536.261 784.544 529.043 785.871 522.411C787.653 520.183 791.586 518.483 793.961 516.625C808.833 504.99 823.102 493.924 842.414 491.701C844.415 491.37 846.916 491.96 848.902 492.265C867.34 495.092 880.258 507.181 896.57 514.741C904.316 518.331 913.169 520.619 921.624 521.711C934.194 523.336 945.487 520.973 957.808 519.239C960.738 522.824 965.295 523.606 968.98 526.204C975.651 530.906 978.183 539.445 979.287 547.149C980.405 554.944 979.234 562.176 974.393 568.6C966.831 578.632 952.99 585.321 940.717 586.94C921.645 589.457 907.193 578.276 892.881 567.43C887.265 563.499 881.543 559.653 875.189 557.005C844.718 544.307 819.485 562.331 796.282 580.386C789.421 585.725 783.063 591.751 774.877 595.026L774.233 595.277Z"/>
	<path fill="#FFFFFF" d="M48.4076 585.129C45.0867 583.335 41.8241 581.067 38.8797 578.708C33.5366 574.428 28.637 569.01 28.0354 561.859C27.3474 553.679 31.9354 545.297 37.1133 539.281C53.6262 520.097 79.1532 503.784 104.794 501.707C136.485 499.512 152.146 519.519 178.997 525.894C201.605 531.261 220.42 522.935 239.298 511.27C239.427 516.634 239.045 521.999 239.276 527.375C239.885 541.556 241.888 555.556 244.315 569.53C246.088 579.742 249.92 590.078 250.541 600.399C248.563 604.407 240.016 610.028 235.918 612.046C218.545 620.602 198.843 617.325 181.25 611.397C151.241 599.522 132.665 569.534 97.7113 567.551C76.3401 566.339 64.1576 571.186 48.4076 585.129Z"/>
	<path fill="#FFFFFF" d="M745.738 663.819C754.954 651.085 762.975 629.711 768.29 614.842C769.055 612.703 771.003 609.09 770.662 606.928C770.546 606.193 770.384 605.541 770.323 604.78C772.726 604.947 775.405 605.309 777.767 604.746C786.103 602.759 793.876 596.442 800.444 591.21C815.672 579.079 830.164 566.3 849.747 562.088C869.27 560.456 882.011 571.185 897.051 581.946C913.465 593.69 927.765 598.105 947.776 594.774C952.546 596.35 957.242 598.453 961.327 601.405C967.681 605.996 971.952 612.409 973.204 620.204C974.745 629.808 972.532 640.265 966.8 648.147C960.043 657.441 948.998 663.855 937.671 665.558C903.354 670.72 886.27 642.784 862.393 624.922C858.411 622.009 854.098 619.376 849.551 617.447C819.56 604.727 792.226 629.546 770.499 647.074C762.668 653.391 755.153 659.975 745.738 663.819Z"/>
	<path fill="#FFFFFF" d="M415.763 671.769C413.562 672.438 411.227 671.236 410.495 669.054C409.762 666.873 410.898 664.505 413.057 663.71C414.51 663.176 416.139 663.473 417.309 664.487C418.48 665.5 419.006 667.07 418.685 668.584C418.363 670.098 417.244 671.318 415.763 671.769Z"/>
	<path fill="#FFFFFF" d="M493.302 698.15C491.755 698.651 490.059 698.271 488.874 697.158C487.689 696.046 487.203 694.377 487.605 692.802C488.007 691.227 489.233 689.996 490.806 689.587C493.142 688.981 495.536 690.341 496.211 692.657C496.887 694.974 495.597 697.407 493.302 698.15Z"/>
	<path fill="#A78BFA" d="M937.139 710.31C935.891 710.506 934.848 710.239 933.668 709.844C932.156 709.337 931.429 708.722 930.771 707.292C931.16 706.239 931.373 706.118 932.266 705.411C933.113 705.462 933.877 705.526 934.719 705.37C934.886 705.339 935.05 705.292 935.216 705.253C936.86 705.089 939.828 704.458 941.241 705.433C942.358 706.204 942.508 706.544 942.692 707.785C942.425 708.243 942.252 708.596 941.858 708.984C940.654 710.166 938.711 710.158 937.139 710.31Z"/>
	<path fill="#A78BFA" d="M135.125 728.217C124.247 732.407 108.74 735.645 97.5497 730.762C95.4556 729.849 92.7047 728.422 91.8233 726.241L92.3516 725.135C99.4379 725.555 106.247 728.268 113.47 727.672C125.726 726.662 136.243 720.155 147.55 716.074C158.735 712.038 170.218 710.148 182.023 709.197C194.481 708.597 205.799 709.76 218.082 711.485C220.459 711.819 223.907 711.845 226.026 712.804C227.156 713.315 227.915 714.23 228.387 715.347C228.981 716.75 228.83 717.731 228.292 719.104C226.87 720.357 225.671 720.757 223.764 720.824C219.054 720.989 213.576 719.426 208.914 718.656C199.941 717.174 191.041 716.18 181.925 716.589C165.603 717.321 150.13 722.079 135.125 728.217Z"/>
	<path fill="#A78BFA" d="M774.892 726.547C774.574 726.68 774.072 726.913 773.733 726.938C772.606 727.021 772.22 726.465 771.497 725.753C771.448 725.053 771.275 724.645 771.674 724.013C772.864 722.127 775.654 720.538 777.625 719.573C794.599 711.265 812.551 724.479 829.758 723.159C838.944 722.454 845.815 716.922 854.39 714.672C854.561 714.627 854.733 714.588 854.904 714.547C855.938 714.791 856.81 714.9 857.657 715.58C858.253 716.058 858.084 716.318 858.129 717.015C855.563 721.374 851.194 724.56 846.614 726.566C821.768 737.447 798.647 713.956 774.892 726.547Z"/>
	<path fill="#FFFFFF" d="M571.528 743.726C569.478 744.911 566.856 744.224 565.65 742.186C564.445 740.147 565.107 737.519 567.134 736.294C569.188 735.052 571.861 735.725 573.083 737.792C574.304 739.858 573.606 742.524 571.528 743.726Z"/>
	<path fill="#A78BFA" d="M722.655 777.344C720.855 777.722 719.458 777.824 717.624 777.618C715.59 777.389 714.016 777.148 712.675 775.459C712.519 773.924 712.68 773.759 713.428 772.384C715.561 772.624 717.538 772.633 719.678 772.619C721.463 772.607 722.469 772.86 723.745 774.104C723.828 775.689 723.453 776.014 722.655 777.344Z"/>
	<path fill="#A78BFA" d="M842.74 810.178C832.951 811.339 824.047 804.417 822.759 794.643C821.472 784.87 828.28 775.878 838.036 774.465C844.459 773.535 850.886 776.132 854.859 781.264C858.832 786.396 859.738 793.268 857.229 799.254C854.72 805.24 849.185 809.413 842.74 810.178ZM837.555 780.02C833.758 782.09 831.516 784.226 830.188 788.459C829.065 792.036 829.121 796.474 831.087 799.761C832.286 801.788 834.261 803.237 836.554 803.773C838.307 804.183 840.048 803.894 841.802 803.645C845.24 802.134 847.708 800.425 849.132 796.827C850.509 793.349 850.244 789.259 848.597 785.913C847.286 783.252 844.929 781.006 842.041 780.175C840.584 779.756 839.047 779.913 837.555 780.02Z"/>
	<path fill="#FFFFFF" d="M841.802 803.645C840.048 803.894 838.307 804.183 836.554 803.773C834.261 803.237 832.286 801.788 831.087 799.761C829.121 796.474 829.065 792.036 830.188 788.459C831.516 784.226 833.758 782.09 837.555 780.02C839.047 779.913 840.584 779.756 842.041 780.175C844.929 781.006 847.286 783.252 848.597 785.913C850.244 789.259 850.509 793.349 849.132 796.827C847.708 800.425 845.24 802.134 841.802 803.645Z"/>
	<path fill="#A78BFA" d="M171.331 822.623C167.148 822.685 163.04 822.233 159.286 820.235C155.489 818.214 152.705 814.983 151.623 810.782C150.45 806.232 151.251 800.971 153.791 797.01C157.147 791.777 162.365 789.816 168.154 788.588C172.152 788.626 175.706 788.918 179.301 790.858C182.8 792.747 185.512 795.877 186.624 799.721C187.866 804.02 186.928 808.741 184.822 812.61C181.78 818.196 177.276 821.004 171.331 822.623ZM168.403 794.607C164.342 795.64 161.618 796.81 159.483 800.6C157.897 803.415 157.419 807.062 158.381 810.164C159.151 812.709 160.956 814.814 163.355 815.961C165.165 816.81 167.434 817.15 169.421 817.179C173.672 815.231 176.568 812.939 178.375 808.486C179.518 805.671 179.801 802.314 178.481 799.505C177.457 797.326 175.524 796.031 173.287 795.296C171.65 794.758 170.119 794.485 168.403 794.607Z"/>
	<path fill="#FFFFFF" d="M169.421 817.179C167.434 817.15 165.165 816.81 163.355 815.961C160.956 814.814 159.151 812.709 158.381 810.164C157.419 807.062 157.897 803.415 159.483 800.6C161.618 796.81 164.342 795.64 168.403 794.607C170.119 794.485 171.65 794.758 173.287 795.296C175.524 796.031 177.457 797.326 178.481 799.505C179.801 802.314 179.518 805.671 178.375 808.486C176.568 812.939 173.672 815.231 169.421 817.179Z"/>
	<path fill="#A78BFA" d="M316.168 806.922C313.218 806.68 309.928 806.941 307.615 804.81C307.2 803.419 307.411 803.365 308.046 802.032C311.044 802.203 315.38 801.26 317.689 803.329C317.645 805.066 317.124 805.509 316.168 806.922Z"/>
	<path fill="#A78BFA" d="M641.047 839.614C638.719 839.601 637.04 839.697 635.027 838.388L635.103 837.517C641.022 832.435 661.66 831.248 669.902 828.668C670.039 828.626 670.174 828.58 670.31 828.536C671.619 828.67 673.282 828.838 674.385 829.58C674.979 829.979 674.902 830.349 675.053 830.989C674.709 831.672 674.362 832.199 673.762 832.689C665.465 839.471 651.225 840.578 641.047 839.614Z"/>
	<path fill="#A78BFA" d="M432.189 852.834C430.415 852.781 429.029 853.17 427.309 853.488C422.591 854.36 408.761 854.204 405.326 850.968C404.352 850.05 404.429 849.503 404.497 848.304C405.727 847.063 407.253 846.926 408.893 846.577C409.577 846.496 410.148 846.493 410.827 846.625C417.262 847.875 425.954 844.924 431.846 847.5C433.183 848.084 433.428 848.75 433.993 850.031C433.594 851.558 433.348 851.733 432.189 852.834Z"/>
	<path fill="#A78BFA" d="M502.139 866.851C501.239 866.631 500.341 866.392 499.439 866.182C498.774 866.028 498.117 865.936 497.485 865.652C496.38 865.156 495.958 864.27 495.591 863.211L496.304 862.194C498.037 861.176 500.002 861.273 501.96 861.167C502.481 861.084 502.655 861.031 503.241 861.079C504.683 861.197 505.481 861.614 506.452 862.608C506.619 864.089 506.552 864.194 505.831 865.507C504.488 866.496 503.797 866.663 502.139 866.851Z"/>
	<path fill="#A78BFA" d="M784.991 867.721C783.535 867.531 781.799 867.321 780.539 866.492C779.56 865.848 779.17 865.198 778.907 864.099C780.743 862.099 783.866 862.968 786.361 862.298C786.519 862.256 786.676 862.21 786.834 862.166C787.691 861.901 789.09 861.758 789.971 861.955C791.235 862.237 791.423 862.646 792.055 863.654C791.88 864.774 791.829 865.234 791.045 866.122C789.657 867.693 786.945 867.575 784.991 867.721Z"/>
	<path fill="#A78BFA" d="M248.624 871.729C248.229 871.869 247.831 872.003 247.432 872.13C245.738 872.666 244.582 872.809 242.962 871.962L243.244 871.057C255.805 861.442 269.987 867.087 283.991 867.183C289.624 867.222 294.808 866.008 300.217 864.544C300.441 864.542 300.666 864.517 300.889 864.538C302.167 864.658 303.383 865.104 304.112 866.229C304.752 867.215 304.813 868.581 304.385 869.666C302.204 875.192 287.301 875.323 282.239 874.765C271.358 873.565 259.565 867.91 248.624 871.729Z"/>
	<path fill="#A78BFA" d="M686.788 924.035C676.831 925.394 667.631 918.499 666.141 908.561C664.651 898.623 671.425 889.333 681.342 887.713C687.875 886.646 694.476 889.176 698.621 894.336C702.766 899.496 703.814 906.487 701.365 912.636C698.915 918.784 693.346 923.139 686.788 924.035ZM682.196 892.551C678.237 894 675.619 896.153 673.803 900.045C672.181 903.524 671.912 907.567 673.373 911.149C674.603 914.167 676.808 916.21 679.831 917.385C681.452 918.015 682.931 918.081 684.642 917.967C688.305 916.984 690.947 915.705 692.901 912.3C694.83 908.942 695.01 904.889 693.877 901.229C692.871 897.982 690.817 895.085 687.751 893.501C685.938 892.564 684.196 892.472 682.196 892.551Z"/>
	<path fill="#FFFFFF" d="M684.642 917.967C682.931 918.081 681.452 918.015 679.831 917.385C676.808 916.21 674.603 914.167 673.373 911.149C671.912 907.567 672.181 903.524 673.803 900.045C675.619 896.153 678.237 894 682.196 892.551C684.196 892.472 685.938 892.564 687.751 893.501C690.817 895.085 692.871 897.982 693.877 901.229C695.01 904.889 694.83 908.942 692.901 912.3C690.947 915.705 688.305 916.984 684.642 917.967Z"/>
	<path fill="#A78BFA" d="M571.891 927.512C569.172 927.674 564.908 927.144 562.775 925.32C562.129 924.767 562.356 924.854 562.353 923.876C563.159 922.744 564.182 922.491 565.43 922.039C567.522 922.118 570.456 921.894 572.392 922.674C573.542 923.138 573.574 923.307 574.027 924.387C573.683 925.842 572.914 926.506 571.891 927.512Z"/>
	<path fill="#A78BFA" d="M511.871 959.889C508.039 960.056 504.412 959.539 501.117 957.464C497.752 955.3 495.43 951.842 494.7 947.909C493.969 944.147 494.605 940.111 496.864 936.963C499.812 932.854 503.983 931.419 508.786 930.717C508.823 930.721 508.859 930.729 508.896 930.729C512.283 930.702 515.035 931.244 517.975 933.044C521.646 935.293 524.43 938.904 525.395 943.128C526.187 946.591 525.726 950.222 523.777 953.23C520.978 957.549 516.654 959.006 511.871 959.889ZM507.664 936.006C504.793 937.235 502.856 938.254 501.661 941.285C500.65 943.784 500.718 946.589 501.849 949.035C502.789 951.056 504.746 953.044 506.872 953.803C508.018 954.212 509.346 954.164 510.549 954.19C510.635 954.192 510.721 954.196 510.807 954.2C513.324 952.872 515.395 951.505 516.305 948.667C517.21 945.845 517.082 942.537 515.594 939.929C514.651 938.275 512.958 936.668 511.097 936.125C510.018 935.81 508.773 935.938 507.664 936.006Z"/>
	<path fill="#FFFFFF" d="M510.807 954.2C510.721 954.196 510.635 954.192 510.549 954.19C509.346 954.164 508.018 954.212 506.872 953.803C504.746 953.044 502.789 951.056 501.849 949.035C500.718 946.589 500.65 943.784 501.661 941.285C502.856 938.254 504.793 937.235 507.664 936.006C508.773 935.938 510.018 935.81 511.097 936.125C512.958 936.668 514.651 938.275 515.594 939.929C517.082 942.537 517.21 945.845 516.305 948.667C515.395 951.505 513.324 952.872 510.807 954.2Z"/>
	<path fill="#A78BFA" d="M393.827 943.412C391.954 942.89 389.61 942.151 387.974 941.108C387.017 940.499 386.918 940.439 386.693 939.301C391.685 934.468 405.259 939.304 411.124 936.57C412.391 936.308 414.635 936.517 415.795 937.186C416.979 937.868 417.092 938.251 417.376 939.467C417.177 939.959 417.054 940.357 416.677 940.773C412.469 945.401 399.564 943.774 393.827 943.412Z"/>
</svg>
